<svg width="4345" height="4288" viewBox="0 0 4345 4288" fill="none" xmlns="http://www.w3.org/2000/svg">
<path d="M3220.16 4194.41C3173.37 4253.78 3101.94 4288.5 3026.48 4287.99L1313.06 4285.48C1238.11 4285.48 1166.67 4250.76 1119.89 4191.39L53.9067 2838.47C7.12222 2779.1 -10.4848 2701.12 6.11611 2627.16L390.453 942.674C407.054 868.713 456.354 806.325 524.267 773.622L2069.66 25.4651C2137.07 -7.23841 2216.05 -7.23842 2283.97 25.9683L3826.85 778.15C3894.26 811.357 3943.56 873.745 3960.16 947.705L4338.96 2633.7C4355.56 2707.66 4337.45 2785.14 4290.67 2844.51L3220.16 4194.41Z" fill="url(#paint0_linear_1_51)"/>
<path d="M2435.12 2629.63C2477.38 2630.13 2521.65 2632.14 2533.72 2634.15C2545.8 2636.17 2574.48 2642.2 2596.61 2648.23C2619.25 2654.27 2651.95 2665.33 2670.06 2672.37C2687.67 2679.41 2712.83 2690.98 2725.91 2698.02C2738.99 2705.06 2759.11 2716.63 2770.18 2723.16C2781.75 2729.7 2802.38 2743.78 2816.47 2754.34C2830.55 2764.9 2858.23 2789.54 2878.85 2809.66C2898.98 2829.27 2923.63 2856.43 2933.69 2869.5C2943.25 2882.58 2959.35 2905.21 2968.91 2919.29C2977.96 2933.37 2992.05 2957 2999.6 2972.09C3007.65 2987.18 3019.72 3014.83 3027.27 3033.94C3034.31 3052.55 3043.37 3078.7 3047.39 3092.28C3050.91 3105.35 3054.44 3119.94 3055.44 3124.46C3056.45 3129.49 3059.47 3144.58 3062.48 3158.66C3065.5 3172.74 3068.52 3199.89 3070.03 3219C3071.04 3237.61 3074.06 3255.21 3076.07 3257.22C3078.58 3260.24 3089.15 3261.75 3108.27 3261.75C3123.86 3261.75 3143.48 3262.75 3152.54 3264.76C3161.09 3266.27 3179.2 3269.79 3192.28 3271.8C3205.37 3274.32 3225.99 3279.35 3238.57 3282.87C3250.64 3286.39 3268.76 3292.93 3279.32 3296.45C3289.38 3299.97 3310.01 3309.02 3325.1 3316.56C3340.2 3323.6 3366.86 3339.19 3384.97 3350.76C3406.1 3364.84 3430.76 3385.46 3456.41 3412.11C3478.55 3434.23 3503.2 3462.9 3512.76 3477.48C3521.82 3491.56 3534.39 3513.19 3540.43 3525.26C3546.47 3537.32 3551.5 3550.4 3551.5 3554.42C3551.5 3557.94 3543.95 3570.51 3534.9 3581.58C3525.84 3593.14 3497.67 3629.35 3471.51 3662.04C3445.35 3695.23 3420.19 3727.41 3414.66 3733.95C3409.12 3740.99 3389.5 3766.13 3370.38 3790.78C3351.27 3815.42 3334.66 3836.03 3333.66 3837.04C3332.65 3838.05 3323.59 3849.61 3313.03 3862.69C3302.46 3875.76 3285.86 3897.39 3275.8 3910.46C3265.74 3923.54 3256.68 3935.1 3255.68 3936.11C3254.67 3937.11 3244.61 3949.69 3233.54 3963.77C3221.97 3977.85 3210.9 3991.93 3207.88 3994.94C3204.86 3998.46 3197.32 4008.02 3190.78 4017.07C3184.24 4025.62 3162.1 4053.78 3141.97 4079.43C3121.35 4105.08 3100.22 4131.22 3094.18 4137.26C3088.14 4143.8 3076.07 4150.84 3067.52 4153.85C3053.43 4157.88 3019.72 4158.88 2839.11 4158.38C2722.89 4157.88 2320.41 4156.87 1945.09 4156.37C1569.78 4155.87 1257.35 4154.36 1250.81 4153.35C1244.27 4151.84 1232.7 4147.32 1225.16 4143.29C1217.61 4138.77 1207.55 4130.72 1202.52 4125.69C1197.48 4120.16 1186.42 4107.59 1178.37 4097.03C1170.32 4086.47 1153.71 4064.85 1141.64 4048.75C1129.57 4033.16 1119 4019.59 1117.99 4018.58C1116.49 4017.57 1103.4 4000.48 1087.81 3980.86C1072.72 3960.75 1051.08 3933.09 1040.01 3919.01C1028.44 3904.93 1009.83 3881.29 998.256 3866.21C986.182 3851.12 974.108 3836.03 971.592 3833.02C968.573 3830 961.53 3820.45 955.493 3812.4C949.455 3804.35 932.35 3782.23 917.76 3763.12C903.17 3744.51 869.462 3701.77 842.798 3668.07C816.133 3634.88 794.5 3605.72 794.5 3604.21C794.5 3602.2 799.028 3594.15 804.562 3586.1C810.096 3578.06 824.686 3561.46 837.767 3548.89C850.344 3536.82 866.947 3522.24 874.493 3516.2C882.04 3510.67 898.139 3499.61 910.214 3492.07C922.288 3484.52 939.393 3474.97 947.443 3471.45C955.996 3467.42 969.077 3461.89 976.623 3458.88C984.17 3455.36 1001.27 3449.82 1014.86 3446.3C1028.44 3442.78 1043.03 3439.77 1047.06 3439.77C1051.59 3439.77 1056.62 3437.75 1058.63 3435.74C1061.14 3432.73 1063.16 3410.6 1064.16 3379.92C1065.67 3347.74 1068.69 3314.05 1073.72 3290.91C1077.75 3269.79 1085.8 3239.12 1091.33 3222.02C1096.86 3205.42 1106.93 3179.78 1113.47 3165.7C1120.01 3151.62 1132.08 3128.48 1140.63 3114.4C1149.69 3100.32 1164.78 3077.69 1174.34 3064.62C1183.9 3051.54 1208.05 3025.39 1227.17 3006.28C1246.79 2987.18 1275.47 2962.53 1291.56 2951.47C1307.16 2940.41 1337.35 2922.81 1357.97 2911.74C1378.6 2901.18 1404.26 2889.62 1415.83 2885.59C1426.9 2881.57 1447.02 2875.54 1460.1 2872.02C1473.18 2867.99 1493.81 2862.96 1505.89 2860.45C1520.98 2857.43 1553.18 2855.92 1606.51 2855.92C1658.33 2855.92 1691.03 2857.43 1703.1 2859.95C1713.67 2862.46 1728.26 2866.48 1735.8 2868.5C1743.35 2870.51 1763.98 2877.04 1781.59 2882.58C1799.2 2888.61 1828.38 2900.68 1846.49 2909.73C1864.1 2918.78 1880.19 2926.33 1882.21 2926.33C1883.72 2926.33 1891.26 2917.27 1898.81 2906.21C1905.85 2895.65 1920.95 2875.54 1931.51 2862.46C1942.08 2849.39 1964.72 2825.25 1981.32 2809.66C1997.92 2793.57 2024.58 2770.43 2040.18 2757.86C2056.28 2745.79 2078.92 2729.2 2091.5 2722.16C2103.57 2714.61 2129.73 2700.53 2149.35 2690.48C2168.98 2680.92 2201.17 2667.85 2220.79 2661.31C2240.42 2654.77 2270.1 2646.22 2287.2 2642.2C2303.81 2638.68 2326.95 2633.65 2338.02 2632.14C2349.09 2630.13 2392.86 2629.13 2435.12 2629.63Z" fill="white"/>
<path fill-rule="evenodd" clip-rule="evenodd" d="M2168.14 3003.34C2135.58 3013.11 2117.46 3089.97 2133.07 3152.06C2135.75 3162.7 2136.11 3165.87 2136.11 3178.58V3193.02L2132.35 3194.59C2130.29 3195.46 2124.66 3196.76 2119.85 3197.48C2115.04 3198.2 2110.2 3199.27 2109.1 3199.86C2108 3200.45 2103.81 3201.45 2099.78 3202.07C2072.81 3206.26 2033.77 3223.23 1996.25 3247.09C1973.68 3261.44 1962.63 3258.43 1951.06 3234.79C1929.25 3190.26 1861.64 3140.04 1830.98 3145.61C1778.47 3155.14 1818.97 3242.29 1897.51 3288.78C1919.58 3301.84 1923.66 3311.17 1914 3326.46C1911.65 3330.17 1907.57 3336.6 1904.94 3340.74C1902.31 3344.89 1900.15 3348.63 1900.15 3349.06C1900.15 3349.49 1898.71 3352.08 1896.96 3354.83C1881.29 3379.3 1863.46 3429.29 1858.89 3461.61C1856.89 3475.7 1844.96 3479.49 1823.01 3473C1747.77 3450.76 1646.05 3482.56 1668.72 3521.24C1674.49 3531.09 1690.48 3544.13 1698.35 3545.41C1700.36 3545.74 1705.86 3547.35 1710.58 3548.99C1733.44 3556.94 1790.74 3557.32 1817.99 3549.7C1824.14 3547.99 1829.41 3547.37 1840.35 3547.11C1857.41 3546.71 1856.86 3546.32 1859.21 3560.5C1866.68 3605.75 1882.79 3646.7 1909.18 3687.55C1912.41 3692.54 1916.72 3699.47 1918.76 3702.96L1922.46 3709.28L1919.34 3713.23C1914.24 3719.67 1906.47 3726.11 1896.2 3732.43C1856.99 3756.52 1820.98 3797.14 1811.26 3828.23C1785.16 3911.68 1896.53 3879.56 1950.23 3788.14C1963.99 3764.72 1973.58 3760.02 1988.04 3769.61C2027.61 3795.86 2062.48 3811.57 2098.06 3819.18C2103.48 3820.34 2109.38 3821.89 2111.17 3822.64C2112.96 3823.38 2117.15 3824.31 2120.48 3824.69C2135.83 3826.44 2136.11 3826.77 2136.11 3843.16C2136.11 3853.72 2135.73 3856.43 2133.05 3865.16C2121.42 3902.93 2125.96 3957.31 2143.69 3992.6C2181.44 4067.73 2235.56 3972.11 2213.04 3870.07C2205.32 3835.08 2207.7 3828.12 2228.88 3823.75C2278.96 3813.43 2305.47 3802.64 2350.56 3774.25C2373.93 3759.53 2379.14 3761.23 2395.55 3788.96C2436.67 3858.45 2518.12 3899.92 2537.77 3861.37C2546.32 3844.59 2536.52 3819.06 2506.9 3780.99C2498 3769.55 2471.15 3745.82 2457.78 3737.58C2442.39 3728.1 2428.19 3716.76 2425.58 3711.87C2423.76 3708.48 2424.62 3706.58 2435.81 3689.19C2461.55 3649.19 2471.58 3626.36 2481.47 3585.2C2483.54 3576.6 2486.43 3564.57 2487.9 3558.47L2490.57 3547.38L2504.18 3547.41C2515.3 3547.44 2519.08 3547.85 2524.89 3549.67C2595.48 3571.69 2698.42 3539.15 2678.88 3500.99C2664 3471.94 2581.58 3455.36 2529.57 3470.95C2518.9 3474.15 2510.43 3475.09 2499.13 3474.34L2490.55 3473.77L2488.4 3465.19C2487.21 3460.48 2484.32 3448.45 2481.97 3438.47C2472.12 3396.63 2460.58 3370.42 2434.45 3330.59C2421.32 3310.57 2424.04 3302.95 2449.21 3289.12C2528.23 3245.68 2568.82 3144.85 2507.19 3145.06C2489.82 3145.12 2484.67 3147.43 2453.24 3169.25C2432.64 3183.56 2407.32 3212.22 2394.02 3236.28C2380.58 3260.62 2373.26 3261.96 2346.39 3244.96C2312.36 3223.44 2281.88 3209.94 2252.87 3203.56C2248.83 3202.67 2243.7 3201.49 2241.49 3200.95C2239.27 3200.4 2232.99 3199.07 2227.54 3197.98C2206.78 3193.85 2203.33 3186.35 2210.58 3161.16C2230.9 3090.62 2204.49 2992.42 2168.14 3003.34ZM2134.67 3291.49C2136.02 3294.5 2136.47 3385.48 2135.16 3390.35C2133.61 3396.12 2131.46 3397.82 2122.34 3400.51L2114.54 3402.8L2078.94 3367.16C2058.24 3346.44 2043.34 3330.75 2043.34 3329.69C2043.34 3325.56 2069.59 3310.4 2091.26 3302.02C2119.1 3291.23 2133.04 3287.86 2134.67 3291.49ZM2228.43 3293.19C2254.62 3300.21 2302.49 3323.61 2302.49 3329.39C2302.49 3330.05 2286.23 3346.84 2266.35 3366.72L2230.21 3402.85L2222.23 3400.09C2207.28 3394.92 2207.44 3395.59 2207.89 3338.44C2208.3 3285.64 2207.43 3287.56 2228.43 3293.19ZM1997.96 3387.27C2000.46 3389.24 2016.25 3404.75 2033.06 3421.72C2068.01 3457.03 2065.6 3452.85 2059.51 3467.48L2056.26 3475.28L2018.79 3475.27C1970.84 3475.27 1952.61 3474.5 1951.82 3472.44C1949.56 3466.55 1961.81 3431.49 1975.88 3403.59C1987.76 3380.03 1988.3 3379.63 1997.96 3387.27ZM2359.82 3386.49C2372.46 3403.94 2391.2 3450.49 2393.63 3470.49L2394.22 3475.28H2342.32H2290.43L2287.76 3470.01C2286.29 3467.11 2284.23 3462.27 2283.19 3459.24L2281.31 3453.75L2289.06 3445.61C2338.5 3393.66 2355.01 3379.86 2359.82 3386.49ZM2057.08 3550.54C2058.59 3553.11 2060.89 3558.15 2062.19 3561.74L2064.56 3568.28L2040.59 3592.62C2027.4 3606.01 2010.78 3622.63 2003.66 3629.55L1990.71 3642.14L1988.32 3639.37C1973.63 3622.29 1947.22 3554.84 1952.97 3549.08C1955.19 3546.86 1967.4 3546.28 2016.83 3546.05L2054.35 3545.87L2057.08 3550.54ZM2365.4 3546.54C2395.94 3547.32 2394.23 3546.54 2392.24 3558.84C2390.15 3571.83 2378.63 3602.18 2369.54 3618.68C2354.39 3646.15 2360.57 3647.83 2317.3 3604.54L2281.19 3568.42L2283.82 3561.44C2285.27 3557.6 2287.58 3552.53 2288.97 3550.16L2291.49 3545.87H2315.48C2328.68 3545.87 2351.14 3546.17 2365.4 3546.54ZM2260.71 3649.99C2308.4 3696.86 2307.01 3693.89 2286.36 3704.88C2262.85 3717.39 2230.18 3729.71 2214.5 3731.97L2209.7 3732.66L2209.97 3679.91L2210.23 3627.16L2218.29 3623.87C2230.31 3618.98 2227.23 3617.08 2260.71 3649.99ZM2130.31 3624.98L2136.11 3627.7V3680.2V3732.71L2131.28 3732.13C2124.59 3731.34 2102.59 3724.79 2095.27 3721.41C2091.94 3719.87 2086.95 3717.8 2084.18 3716.8C2071.29 3712.16 2043.34 3696.43 2043.34 3693.82C2043.34 3690.83 2106.03 3627.15 2113.32 3622.74C2116.39 3620.88 2123.59 3621.83 2130.31 3624.98Z" fill="url(#paint1_linear_1_51)"/>
<path d="M860.18 1337C839.18 1337 828.68 1326.5 828.68 1305.5V860C828.68 839 839.18 828.5 860.18 828.5H1040.93C1106.18 828.5 1154.18 844 1184.93 875C1215.93 905.75 1231.43 953.75 1231.43 1019V1146.5C1231.43 1211.75 1216.05 1259.87 1185.3 1290.87C1154.8 1321.62 1106.68 1337 1040.93 1337H860.18ZM891.68 1274H1040.93C1072.93 1274 1098.18 1270.12 1116.68 1262.37C1135.43 1254.37 1148.68 1241.12 1156.43 1222.62C1164.43 1203.87 1168.43 1178.5 1168.43 1146.5V1019C1168.43 987.25 1164.43 962.125 1156.43 943.625C1148.68 924.875 1135.43 911.5 1116.68 903.5C1098.18 895.5 1072.93 891.5 1040.93 891.5H891.68V1274ZM1414.21 1172.75V1190.75C1414.21 1223 1420.08 1245 1431.83 1256.75C1443.58 1268.25 1465.71 1274 1498.21 1274H1559.71C1585.21 1274 1604.08 1271.62 1616.33 1266.87C1628.58 1262.12 1636.71 1253.75 1640.71 1241.75C1643.46 1232.25 1647.21 1225 1651.96 1220C1656.96 1215 1664.46 1212.5 1674.46 1212.5C1684.96 1212.5 1692.96 1215.25 1698.46 1220.75C1703.96 1226.25 1705.71 1234.25 1703.71 1244.75C1698.21 1275.75 1683.46 1298.87 1659.46 1314.12C1635.46 1329.37 1602.21 1337 1559.71 1337H1498.21C1448.46 1337 1411.46 1325 1387.21 1301C1363.21 1277 1351.21 1240.25 1351.21 1190.75V1103.75C1351.21 1053 1363.21 1015.75 1387.21 992C1411.46 968 1448.46 956.25 1498.21 956.75H1559.71C1609.71 956.75 1646.71 968.75 1670.71 992.75C1694.71 1016.5 1706.71 1053.5 1706.71 1103.75V1141.25C1706.71 1162.25 1696.21 1172.75 1675.21 1172.75H1414.21ZM1498.21 1019.75C1465.71 1019.25 1443.58 1024.87 1431.83 1036.62C1420.08 1048.37 1414.21 1070.75 1414.21 1103.75V1109.75H1643.71V1103.75C1643.71 1071 1637.83 1048.87 1626.08 1037.37C1614.58 1025.62 1592.46 1019.75 1559.71 1019.75H1498.21ZM1978.4 1313.75C1975.15 1321.5 1970.53 1327.37 1964.53 1331.37C1958.78 1335.12 1951.4 1337 1942.4 1337C1926.65 1337 1915.4 1328.75 1908.65 1312.25L1781.15 1001.75C1772.4 981.75 1777.9 968 1797.65 960.5C1816.4 951.75 1830.15 957.25 1838.9 977L1958.15 1268H1928.9L2059.4 975.5C2063.65 967.25 2069.4 961.625 2076.65 958.625C2084.15 955.625 2092.4 956.25 2101.4 960.5C2119.9 969.25 2124.9 983.25 2116.4 1002.5L1978.4 1313.75ZM2374.68 1337C2317.43 1337 2275.05 1323.37 2247.55 1296.12C2220.3 1268.62 2206.68 1226.25 2206.68 1169V995.75C2206.68 938 2220.43 895.625 2247.93 868.625C2275.43 841.375 2317.68 828 2374.68 828.5H2464.68C2522.18 828.5 2564.55 842.125 2591.8 869.375C2619.05 896.625 2632.68 939 2632.68 996.5V1169C2632.68 1226.25 2619.05 1268.62 2591.8 1296.12C2564.55 1323.37 2522.18 1337 2464.68 1337H2374.68ZM2374.68 1274H2464.68C2491.43 1274 2512.43 1270.87 2527.68 1264.62C2542.93 1258.12 2553.68 1247.25 2559.93 1232C2566.43 1216.75 2569.68 1195.75 2569.68 1169V996.5C2569.68 970 2566.43 949.125 2559.93 933.875C2553.68 918.625 2542.93 907.75 2527.68 901.25C2512.43 894.75 2491.43 891.5 2464.68 891.5H2374.68C2348.18 891.25 2327.3 894.25 2312.05 900.5C2296.8 906.75 2285.93 917.5 2279.43 932.75C2272.93 948 2269.68 969 2269.68 995.75V1169C2269.68 1195.75 2272.8 1216.75 2279.05 1232C2285.55 1247.25 2296.43 1258.12 2311.68 1264.62C2326.93 1270.87 2347.93 1274 2374.68 1274ZM2801.83 1487C2780.83 1487 2770.33 1476.5 2770.33 1455.5V988.25C2770.33 967.25 2780.83 956.75 2801.83 956.75C2822.83 956.75 2833.33 967.25 2833.33 988.25V997.625C2846.83 984.125 2863.46 974 2883.21 967.25C2903.21 960.25 2925.58 956.75 2950.33 956.75H2978.83C3028.83 956.75 3065.83 968.75 3089.83 992.75C3113.83 1016.75 3125.83 1053.75 3125.83 1103.75V1190C3125.83 1239.75 3113.83 1276.75 3089.83 1301C3065.83 1325 3028.83 1337 2978.83 1337H2833.33V1455.5C2833.33 1476.5 2822.83 1487 2801.83 1487ZM2833.33 1274H2978.83C3011.58 1274 3033.71 1268.12 3045.21 1256.37C3056.96 1244.62 3062.83 1222.5 3062.83 1190V1103.75C3062.83 1071 3056.96 1048.87 3045.21 1037.37C3033.71 1025.62 3011.58 1019.75 2978.83 1019.75H2950.33C2919.08 1019.75 2892.08 1023.5 2869.33 1031C2846.58 1038.5 2834.58 1050.37 2833.33 1066.62V1274ZM3353.23 1337C3321.48 1337 3296.36 1330.5 3277.86 1317.5C3259.36 1304.25 3247.48 1284.5 3242.23 1258.25C3240.48 1247.75 3242.48 1239.5 3248.23 1233.5C3254.23 1227.5 3262.48 1224.5 3272.98 1224.5C3283.23 1224.5 3290.61 1227.12 3295.11 1232.37C3299.86 1237.37 3303.73 1245 3306.73 1255.25C3309.73 1262.75 3314.73 1267.75 3321.73 1270.25C3328.98 1272.75 3339.48 1274 3353.23 1274H3476.23C3495.73 1274 3508.86 1270.87 3515.61 1264.62C3522.36 1258.12 3525.73 1244.75 3525.73 1224.5C3525.73 1204.5 3522.36 1191.25 3515.61 1184.75C3508.86 1178.25 3495.73 1175 3476.23 1175H3355.48C3319.48 1175 3292.36 1165.87 3274.11 1147.63C3255.86 1129.37 3246.73 1102.25 3246.73 1066.25C3246.73 1029.5 3255.61 1002.12 3273.36 984.125C3291.36 965.875 3318.73 956.75 3355.48 956.75H3472.48C3531.23 956.75 3565.98 981.5 3576.73 1031C3578.73 1041.5 3576.73 1049.62 3570.73 1055.37C3564.73 1061.12 3556.48 1064 3545.98 1064C3536.23 1064 3528.98 1061.5 3524.23 1056.5C3519.48 1051.25 3515.73 1044 3512.98 1034.75C3509.98 1028.75 3505.36 1024.75 3499.11 1022.75C3493.11 1020.75 3484.23 1019.75 3472.48 1019.75H3355.48C3336.48 1019.75 3324.11 1022.62 3318.36 1028.37C3312.61 1034.12 3309.73 1046.75 3309.73 1066.25C3309.73 1084.25 3312.73 1096.37 3318.73 1102.62C3324.98 1108.87 3337.23 1112 3355.48 1112H3476.23C3513.73 1112 3541.86 1121.37 3560.61 1140.12C3579.36 1158.87 3588.73 1187 3588.73 1224.5C3588.73 1262.25 3579.36 1290.5 3560.61 1309.25C3541.86 1327.75 3513.73 1337 3476.23 1337H3353.23ZM333 2221C313 2213.25 307 2199.5 315 2179.75L493.5 1740.25C501 1723.75 512.75 1715.5 528.75 1715.5H530.25C546.5 1716.25 557.5 1724.5 563.25 1740.25L744.75 2179.75C752.75 2199.5 747 2213.25 727.5 2221C707.75 2228.75 694 2223 686.25 2203.75L645.75 2105.5H412.125L373.5 2203.75C365.75 2223.25 352.25 2229 333 2221ZM436.875 2042.5H619.875L526.5 1815.25L436.875 2042.5ZM970.863 2224C921.113 2224 884.113 2212 859.863 2188C835.863 2163.75 823.863 2126.75 823.863 2077V1990C823.863 1940 835.738 1903 859.488 1879C883.488 1855 920.613 1843.25 970.863 1843.75H1032.36C1069.61 1843.75 1098.86 1850 1120.11 1862.5C1141.61 1875 1155.36 1894.25 1161.36 1920.25C1163.61 1930.75 1161.74 1938.87 1155.74 1944.62C1149.99 1950.37 1141.61 1953.25 1130.61 1953.25C1120.86 1953.25 1113.74 1950.75 1109.24 1945.75C1104.74 1940.75 1100.61 1933.75 1096.86 1924.75C1093.11 1918 1086.24 1913.37 1076.24 1910.87C1066.24 1908.12 1051.61 1906.75 1032.36 1906.75H970.863C938.613 1906.25 916.488 1911.87 904.488 1923.62C892.738 1935.12 886.863 1957.25 886.863 1990V2077C886.863 2109.5 892.738 2131.62 904.488 2143.37C916.488 2155.12 938.613 2161 970.863 2161H1032.36C1051.61 2161 1066.24 2159.75 1076.24 2157.25C1086.24 2154.5 1093.11 2149.75 1096.86 2143C1100.61 2133.5 1104.74 2126.37 1109.24 2121.62C1113.99 2116.87 1121.36 2114.5 1131.36 2114.5C1141.86 2114.5 1149.99 2117.37 1155.74 2123.12C1161.74 2128.87 1163.61 2137 1161.36 2147.5C1155.36 2173.25 1141.61 2192.5 1120.11 2205.25C1098.86 2217.75 1069.61 2224 1032.36 2224H970.863ZM1394.65 2224C1352.65 2224 1321.4 2213.75 1300.9 2193.25C1280.4 2172.75 1270.15 2141.5 1270.15 2099.5C1270.15 2057.5 1280.28 2026.25 1300.53 2005.75C1321.03 1985.25 1352.4 1975 1394.65 1975H1553.28C1551.78 1948.75 1544.9 1930.87 1532.65 1921.37C1520.4 1911.62 1499.4 1906.75 1469.65 1906.75H1426.15C1401.15 1906.75 1382.53 1908.5 1370.28 1912C1358.03 1915.25 1349.4 1921.25 1344.4 1930C1339.9 1940.5 1335.28 1947.75 1330.53 1951.75C1325.78 1955.75 1318.65 1957.75 1309.15 1957.75C1298.65 1957.75 1290.4 1954.87 1284.4 1949.12C1278.4 1943.12 1276.65 1935.25 1279.15 1925.5C1286.65 1897.25 1302.28 1876.62 1326.03 1863.62C1350.03 1850.37 1383.4 1843.75 1426.15 1843.75H1469.65C1519.65 1843.75 1556.65 1855.75 1580.65 1879.75C1604.65 1903.75 1616.65 1940.75 1616.65 1990.75V2192.5C1616.65 2213.5 1606.15 2224 1585.15 2224C1564.15 2224 1553.65 2213.5 1553.65 2192.5V2175.62C1526.9 2207.87 1487.9 2224 1436.65 2224H1394.65ZM1394.65 2161H1436.65C1455.15 2161 1472.53 2159.37 1488.78 2156.12C1505.03 2152.62 1518.9 2146.37 1530.4 2137.37C1542.15 2128.37 1549.9 2115.5 1553.65 2098.75V2038H1394.65C1369.9 2038 1353.4 2042.12 1345.15 2050.37C1337.15 2058.62 1333.15 2075 1333.15 2099.5C1333.15 2124.25 1337.15 2140.75 1345.15 2149C1353.4 2157 1369.9 2161 1394.65 2161ZM1894.45 2224C1844.7 2224 1807.7 2212 1783.45 2188C1759.45 2163.75 1747.45 2126.75 1747.45 2077V1990.75C1747.45 1940.75 1759.45 1903.75 1783.45 1879.75C1807.7 1855.75 1844.7 1843.75 1894.45 1843.75H2039.95V1727.5C2039.95 1706.5 2050.45 1696 2071.45 1696C2092.45 1696 2102.95 1706.5 2102.95 1727.5V2192.5C2102.95 2213.5 2092.45 2224 2071.45 2224C2050.45 2224 2039.95 2213.5 2039.95 2192.5V2187.25C2028.2 2199.25 2012.82 2208.37 1993.82 2214.62C1974.82 2220.87 1951.2 2224 1922.95 2224H1894.45ZM1894.45 2161H1922.95C1955.95 2161 1983.7 2156.75 2006.2 2148.25C2028.7 2139.75 2039.95 2126.75 2039.95 2109.25V1906.75H1894.45C1861.95 1906.75 1839.82 1912.75 1828.07 1924.75C1816.32 1936.5 1810.45 1958.5 1810.45 1990.75V2077C1810.45 2109.5 1816.32 2131.62 1828.07 2143.37C1840.07 2155.12 1862.2 2161 1894.45 2161ZM2296.78 2059.75V2077.75C2296.78 2110 2302.65 2132 2314.4 2143.75C2326.15 2155.25 2348.28 2161 2380.78 2161H2442.28C2467.78 2161 2486.65 2158.62 2498.9 2153.87C2511.15 2149.12 2519.28 2140.75 2523.28 2128.75C2526.03 2119.25 2529.78 2112 2534.53 2107C2539.53 2102 2547.03 2099.5 2557.03 2099.5C2567.53 2099.5 2575.53 2102.25 2581.03 2107.75C2586.53 2113.25 2588.28 2121.25 2586.28 2131.75C2580.78 2162.75 2566.03 2185.87 2542.03 2201.12C2518.03 2216.37 2484.78 2224 2442.28 2224H2380.78C2331.03 2224 2294.03 2212 2269.78 2188C2245.78 2164 2233.78 2127.25 2233.78 2077.75V1990.75C2233.78 1940 2245.78 1902.75 2269.78 1879C2294.03 1855 2331.03 1843.25 2380.78 1843.75H2442.28C2492.28 1843.75 2529.28 1855.75 2553.28 1879.75C2577.28 1903.5 2589.28 1940.5 2589.28 1990.75V2028.25C2589.28 2049.25 2578.78 2059.75 2557.78 2059.75H2296.78ZM2380.78 1906.75C2348.28 1906.25 2326.15 1911.87 2314.4 1923.62C2302.65 1935.37 2296.78 1957.75 2296.78 1990.75V1996.75H2526.28V1990.75C2526.28 1958 2520.4 1935.87 2508.65 1924.37C2497.15 1912.62 2475.03 1906.75 2442.28 1906.75H2380.78ZM3143.37 1843.75C3190.62 1843.75 3224.49 1854.87 3244.99 1877.12C3265.74 1899.37 3276.12 1936.25 3276.12 1987.75V2192.5C3276.12 2213.5 3265.62 2224 3244.62 2224C3223.62 2224 3213.12 2213.5 3213.12 2192.5V1987.75C3213.12 1959.25 3207.62 1938.62 3196.62 1925.87C3185.87 1913.12 3168.12 1906.75 3143.37 1906.75H3112.62C3084.12 1906.75 3063.74 1913.12 3051.49 1925.87C3039.24 1938.62 3033.12 1959.25 3033.12 1987.75V2192.5C3033.12 2213.5 3022.62 2224 3001.62 2224C2980.62 2224 2970.12 2213.5 2970.12 2192.5V1987.75C2970.12 1959.25 2964.62 1938.62 2953.62 1925.87C2942.87 1913.12 2925.12 1906.75 2900.37 1906.75H2869.62C2841.12 1906.75 2820.74 1913.12 2808.49 1925.87C2796.24 1938.62 2790.12 1959.25 2790.12 1987.75V2192.5C2790.12 2213.5 2779.62 2224 2758.62 2224C2737.62 2224 2727.12 2213.5 2727.12 2192.5V1875.25C2727.12 1854.25 2737.62 1843.75 2758.62 1843.75C2779.62 1843.75 2790.12 1854.25 2790.12 1875.25V1892.5C2803.37 1875.25 2817.87 1862.87 2833.62 1855.37C2849.62 1847.62 2868.62 1843.75 2890.62 1843.75H2900.37C2931.37 1843.75 2955.74 1848.12 2973.49 1856.87C2991.24 1865.37 3004.74 1879.25 3013.99 1898.5C3027.24 1878.75 3041.24 1864.75 3055.99 1856.5C3070.99 1848 3089.87 1843.75 3112.62 1843.75H3143.37ZM3445.38 1782.25C3421.63 1782.25 3409.76 1770.25 3409.76 1746.25V1724.12C3409.76 1700.62 3421.63 1688.87 3445.38 1688.87H3467.13C3489.88 1688.87 3501.26 1700.62 3501.26 1724.12V1746.25C3501.26 1770.25 3489.88 1782.25 3467.13 1782.25H3445.38ZM3455.88 2224C3434.88 2224 3424.38 2213.5 3424.38 2192.5V1875.25C3424.38 1854.25 3434.88 1843.75 3455.88 1843.75C3476.88 1843.75 3487.38 1854.25 3487.38 1875.25V2192.5C3487.38 2213.5 3476.88 2224 3455.88 2224ZM3760.38 2224C3718.38 2224 3687.13 2213.75 3666.63 2193.25C3646.13 2172.75 3635.88 2141.5 3635.88 2099.5C3635.88 2057.5 3646 2026.25 3666.25 2005.75C3686.75 1985.25 3718.13 1975 3760.38 1975H3919C3917.5 1948.75 3910.63 1930.87 3898.38 1921.37C3886.13 1911.62 3865.13 1906.75 3835.38 1906.75H3791.88C3766.88 1906.75 3748.25 1908.5 3736 1912C3723.75 1915.25 3715.13 1921.25 3710.13 1930C3705.63 1940.5 3701 1947.75 3696.25 1951.75C3691.5 1955.75 3684.38 1957.75 3674.88 1957.75C3664.38 1957.75 3656.13 1954.87 3650.13 1949.12C3644.13 1943.12 3642.38 1935.25 3644.88 1925.5C3652.38 1897.25 3668 1876.62 3691.75 1863.62C3715.75 1850.37 3749.13 1843.75 3791.88 1843.75H3835.38C3885.38 1843.75 3922.38 1855.75 3946.38 1879.75C3970.38 1903.75 3982.38 1940.75 3982.38 1990.75V2192.5C3982.38 2213.5 3971.88 2224 3950.88 2224C3929.88 2224 3919.38 2213.5 3919.38 2192.5V2175.62C3892.63 2207.87 3853.63 2224 3802.38 2224H3760.38ZM3760.38 2161H3802.38C3820.88 2161 3838.25 2159.37 3854.5 2156.12C3870.75 2152.62 3884.63 2146.37 3896.13 2137.37C3907.88 2128.37 3915.63 2115.5 3919.38 2098.75V2038H3760.38C3735.63 2038 3719.13 2042.12 3710.88 2050.37C3702.88 2058.62 3698.88 2075 3698.88 2099.5C3698.88 2124.25 3702.88 2140.75 3710.88 2149C3719.13 2157 3735.63 2161 3760.38 2161Z" fill="white"/>
<defs>
<linearGradient id="paint0_linear_1_51" x1="29.2569" y1="1.31479" x2="4316.44" y2="4287.37" gradientUnits="userSpaceOnUse">
<stop stop-color="#5CFF68"/>
<stop offset="1" stop-color="#05CAFF"/>
</linearGradient>
<linearGradient id="paint1_linear_1_51" x1="1672.34" y1="3002.57" x2="2689.27" y2="4004.49" gradientUnits="userSpaceOnUse">
<stop stop-color="#5CFF68"/>
<stop offset="1" stop-color="#05CAFF"/>
</linearGradient>
</defs>
</svg>
