<svg width="1651" height="151" viewBox="0 0 1651 151" fill="none" xmlns="http://www.w3.org/2000/svg">
<g clip-path="url(#clip0_1_52)">
<path d="M132.873 149.725C131.204 151.803 128.656 153.018 125.964 153L64.841 152.912C62.1673 152.912 59.6188 151.697 57.9501 149.62L19.923 102.282C18.2541 100.204 17.626 97.4759 18.2182 94.8881L31.9287 35.9487C32.5209 33.3609 34.2796 31.1779 36.7023 30.0337L91.8314 3.85602C94.2361 2.71174 97.0536 2.71174 99.4765 3.87363L154.516 30.1921C156.921 31.354 158.679 33.5369 159.272 36.1248L172.785 95.117C173.377 97.7048 172.731 100.416 171.062 102.493L132.873 149.725Z" fill="url(#paint0_linear_1_52)"/>
<path d="M104.851 94.9571C106.358 94.9746 107.937 95.045 108.368 95.1153C108.799 95.186 109.822 95.397 110.611 95.608C111.419 95.8193 112.586 96.2063 113.232 96.4526C113.86 96.6989 114.757 97.1038 115.224 97.3501C115.691 97.5964 116.408 98.0012 116.803 98.2297C117.216 98.4586 117.952 98.9512 118.455 99.3207C118.957 99.6902 119.944 100.552 120.68 101.256C121.398 101.942 122.277 102.893 122.636 103.35C122.977 103.808 123.552 104.599 123.893 105.092C124.215 105.585 124.718 106.412 124.987 106.94C125.275 107.468 125.705 108.435 125.975 109.104C126.226 109.755 126.549 110.67 126.692 111.145C126.818 111.602 126.944 112.113 126.979 112.271C127.015 112.447 127.123 112.975 127.231 113.468C127.338 113.96 127.446 114.91 127.5 115.579C127.536 116.23 127.644 116.846 127.715 116.916C127.805 117.022 128.182 117.075 128.864 117.075C129.42 117.075 130.12 117.11 130.443 117.18C130.748 117.233 131.394 117.356 131.861 117.426C132.328 117.514 133.064 117.69 133.512 117.814C133.943 117.937 134.589 118.166 134.966 118.289C135.325 118.412 136.061 118.729 136.599 118.992C137.138 119.239 138.089 119.784 138.735 120.189C139.489 120.682 140.368 121.403 141.283 122.336C142.073 123.11 142.952 124.113 143.294 124.623C143.617 125.116 144.065 125.872 144.281 126.295C144.496 126.717 144.676 127.174 144.676 127.315C144.676 127.438 144.406 127.878 144.083 128.265C143.76 128.67 142.755 129.937 141.822 131.081C140.889 132.242 139.991 133.368 139.794 133.597C139.596 133.843 138.896 134.723 138.214 135.585C137.533 136.447 136.94 137.168 136.904 137.204C136.868 137.239 136.545 137.644 136.169 138.101C135.791 138.559 135.199 139.315 134.84 139.773C134.482 140.23 134.158 140.635 134.123 140.67C134.087 140.705 133.728 141.145 133.333 141.638C132.92 142.131 132.525 142.623 132.417 142.729C132.31 142.852 132.041 143.186 131.807 143.503C131.574 143.802 130.784 144.787 130.066 145.685C129.331 146.582 128.577 147.497 128.361 147.708C128.146 147.937 127.715 148.184 127.41 148.289C126.908 148.43 125.705 148.465 119.262 148.447C115.116 148.43 100.759 148.394 87.3697 148.377C73.9812 148.359 62.8359 148.307 62.6026 148.271C62.3692 148.218 61.9565 148.06 61.6875 147.919C61.4182 147.761 61.0593 147.479 60.8799 147.303C60.7001 147.11 60.3056 146.67 60.0184 146.301C59.7312 145.931 59.1387 145.175 58.7081 144.611C58.2775 144.066 57.9005 143.591 57.8644 143.556C57.8109 143.52 57.344 142.922 56.7878 142.236C56.2495 141.532 55.4775 140.565 55.0826 140.072C54.6699 139.579 54.006 138.752 53.5931 138.224C53.1624 137.696 52.7317 137.168 52.6419 137.063C52.5343 136.957 52.283 136.623 52.0676 136.342C51.8523 136.06 51.2421 135.286 50.7216 134.617C50.2011 133.966 48.9986 132.471 48.0475 131.292C47.0962 130.13 46.3245 129.11 46.3245 129.057C46.3245 128.987 46.486 128.705 46.6835 128.423C46.8809 128.142 47.4013 127.561 47.868 127.122C48.3166 126.699 48.9089 126.189 49.1781 125.978C49.4473 125.784 50.0216 125.397 50.4524 125.133C50.8831 124.869 51.4933 124.535 51.7805 124.412C52.0856 124.271 52.5522 124.077 52.8214 123.972C53.0907 123.849 53.7007 123.655 54.1855 123.532C54.6699 123.409 55.1904 123.303 55.3341 123.303C55.4957 123.303 55.6752 123.233 55.7469 123.162C55.8364 123.057 55.9085 122.283 55.9441 121.209C55.998 120.083 56.1057 118.905 56.2852 118.095C56.4289 117.356 56.7161 116.283 56.9134 115.685C57.1107 115.104 57.4699 114.207 57.7032 113.714C57.9365 113.221 58.3671 112.412 58.6721 111.919C58.9953 111.426 59.5336 110.634 59.8746 110.177C60.2157 109.719 61.0772 108.805 61.7592 108.136C62.4591 107.468 63.4823 106.605 64.0562 106.218C64.6127 105.831 65.6897 105.215 66.4253 104.828C67.1612 104.458 68.0766 104.054 68.4893 103.913C68.8842 103.772 69.602 103.561 70.0686 103.438C70.5352 103.297 71.2711 103.121 71.7021 103.033C72.2404 102.928 73.3891 102.875 75.2915 102.875C77.1401 102.875 78.3066 102.928 78.7372 103.016C79.1142 103.104 79.6347 103.244 79.9037 103.315C80.173 103.385 80.909 103.614 81.5372 103.808C82.1654 104.019 83.2063 104.441 83.8524 104.758C84.4806 105.074 85.0545 105.338 85.1266 105.338C85.1805 105.338 85.4494 105.021 85.7188 104.634C85.9699 104.265 86.5086 103.561 86.8853 103.104C87.2624 102.646 88.07 101.802 88.6622 101.256C89.2543 100.693 90.2054 99.8837 90.7619 99.4439C91.3362 99.0215 92.1439 98.4411 92.5926 98.1947C93.0232 97.9306 93.9564 97.4379 94.6563 97.0863C95.3566 96.7518 96.5049 96.2944 97.2048 96.0656C97.9051 95.8368 98.9639 95.5376 99.5739 95.397C100.166 95.2738 100.992 95.0978 101.387 95.045C101.782 94.9746 103.343 94.9397 104.851 94.9571Z" fill="white"/>
<path fill-rule="evenodd" clip-rule="evenodd" d="M95.3267 108.033C94.1651 108.375 93.5186 111.064 94.0756 113.237C94.1711 113.609 94.1841 113.72 94.1841 114.165V114.67L94.05 114.725C93.9763 114.755 93.7756 114.801 93.604 114.826C93.4324 114.851 93.2599 114.889 93.2206 114.909C93.1814 114.93 93.0316 114.965 92.8879 114.986C91.9258 115.133 90.5334 115.727 89.1948 116.562C88.3897 117.064 87.9956 116.959 87.5826 116.131C86.8047 114.573 84.3929 112.816 83.2991 113.011C81.4259 113.344 82.8706 116.394 85.6724 118.02C86.4597 118.478 86.6052 118.804 86.2606 119.339C86.1768 119.469 86.0314 119.694 85.9375 119.839C85.8435 119.984 85.7666 120.115 85.7666 120.13C85.7666 120.145 85.7154 120.235 85.6527 120.331C85.0937 121.188 84.4579 122.937 84.2946 124.068C84.2234 124.561 83.7978 124.693 83.0148 124.466C80.3307 123.688 76.7022 124.801 77.5108 126.154C77.7166 126.499 78.287 126.955 78.5676 127C78.6394 127.011 78.8357 127.067 79.0039 127.125C79.8195 127.403 81.8637 127.417 82.8357 127.15C83.0549 127.09 83.2432 127.069 83.6333 127.059C84.242 127.045 84.2225 127.032 84.306 127.528C84.5725 129.111 85.1472 130.544 86.0889 131.973C86.2039 132.148 86.3576 132.39 86.4303 132.512L86.5626 132.734L86.451 132.872C86.2692 133.097 85.9921 133.322 85.6255 133.543C84.227 134.386 82.9423 135.808 82.5955 136.895C81.6645 139.816 85.6373 138.692 87.553 135.493C88.0439 134.673 88.3861 134.509 88.9018 134.844C90.3136 135.763 91.5575 136.313 92.8267 136.579C93.02 136.619 93.2304 136.674 93.2944 136.7C93.3583 136.726 93.5078 136.758 93.6265 136.772C94.1742 136.833 94.1841 136.845 94.1841 137.418C94.1841 137.787 94.1706 137.882 94.0748 138.188C93.66 139.509 93.8221 141.412 94.4545 142.647C95.801 145.276 97.7318 141.93 96.9284 138.36C96.6528 137.135 96.7377 136.892 97.4935 136.739C99.2799 136.378 100.226 136 101.834 135.007C102.668 134.492 102.854 134.551 103.439 135.522C104.906 137.953 107.812 139.404 108.513 138.055C108.818 137.468 108.468 136.575 107.411 135.243C107.094 134.842 106.136 134.012 105.659 133.724C105.11 133.392 104.604 132.995 104.51 132.824C104.446 132.706 104.476 132.639 104.875 132.031C105.794 130.631 106.151 129.832 106.504 128.392C106.578 128.091 106.681 127.67 106.734 127.457L106.829 127.069L107.314 127.07C107.711 127.071 107.846 127.085 108.053 127.149C110.571 127.919 114.244 126.781 113.546 125.445C113.016 124.429 110.075 123.849 108.22 124.394C107.839 124.506 107.537 124.539 107.134 124.513L106.828 124.493L106.751 124.193C106.709 124.028 106.606 123.607 106.522 123.258C106.171 121.794 105.759 120.877 104.827 119.483C104.359 118.783 104.455 118.516 105.353 118.032C108.172 116.512 109.62 112.984 107.422 112.992C106.802 112.994 106.618 113.075 105.497 113.838C104.762 114.339 103.859 115.342 103.385 116.184C102.905 117.035 102.644 117.082 101.686 116.487C100.471 115.734 99.3842 115.262 98.3494 115.039C98.2051 115.007 98.0223 114.966 97.9431 114.947C97.864 114.928 97.6401 114.881 97.4456 114.843C96.7051 114.699 96.5818 114.436 96.8407 113.555C97.5653 111.087 96.6233 107.651 95.3267 108.033ZM94.1327 118.115C94.1808 118.22 94.197 121.404 94.1502 121.574C94.0948 121.776 94.0181 121.836 93.6927 121.93L93.4144 122.01L92.1446 120.763C91.4063 120.038 90.8746 119.489 90.8746 119.452C90.8746 119.307 91.8112 118.777 92.5839 118.484C93.5771 118.106 94.0744 117.988 94.1327 118.115ZM97.4774 118.175C98.4116 118.42 100.119 119.239 100.119 119.441C100.119 119.464 99.5392 120.052 98.83 120.747L97.5407 122.012L97.2563 121.915C96.723 121.734 96.7285 121.758 96.7445 119.758C96.7593 117.911 96.7282 117.978 97.4774 118.175ZM89.2557 121.466C89.3449 121.536 89.9083 122.078 90.5079 122.672C91.7548 123.907 91.6686 123.761 91.4514 124.273L91.3355 124.546H89.999C88.2882 124.546 87.638 124.519 87.6098 124.447C87.5292 124.24 87.9662 123.014 88.4682 122.037C88.8919 121.213 88.9112 121.199 89.2557 121.466ZM102.165 121.439C102.615 122.05 103.284 123.679 103.371 124.378L103.392 124.546H99.689L99.5937 124.361C99.5413 124.26 99.4681 124.091 99.431 123.985L99.3636 123.793L99.6401 123.508C101.404 121.69 101.993 121.207 102.165 121.439ZM91.3649 127.179C91.4186 127.269 91.5006 127.445 91.5471 127.571L91.6318 127.8L90.7764 128.652C90.3059 129.12 89.7131 129.702 89.459 129.944L88.997 130.384L88.9119 130.287C88.3878 129.69 87.4457 127.33 87.6508 127.128C87.7299 127.051 88.1656 127.03 89.9289 127.022L91.2673 127.016L91.3649 127.179ZM102.364 127.039C103.453 127.067 103.392 127.039 103.321 127.47C103.246 127.924 102.836 128.986 102.511 129.563C101.971 130.525 102.191 130.583 100.648 129.069L99.3597 127.805L99.4534 127.561C99.505 127.426 99.5875 127.249 99.6369 127.166L99.7268 127.016H100.583C101.054 127.016 101.855 127.026 102.364 127.039ZM98.6289 130.659C100.33 132.299 100.281 132.195 99.5439 132.58C98.7051 133.017 97.5397 133.448 96.9806 133.527L96.8094 133.551L96.828 129.86L97.1158 129.745C97.5444 129.574 97.4347 129.508 98.6289 130.659ZM93.9772 129.784L94.1841 129.879V133.553L94.0118 133.533C93.7732 133.505 92.9881 133.276 92.7272 133.158C92.6085 133.104 92.4304 133.032 92.3315 132.997C91.8716 132.834 90.8747 132.284 90.8747 132.192C90.8746 132.088 93.1112 129.86 93.3711 129.705C93.4804 129.64 93.7374 129.674 93.9772 129.784Z" fill="url(#paint1_linear_1_52)"/>
<path d="M52.0978 47.5C51.4258 47.5 51.0898 47.164 51.0898 46.492V32.236C51.0898 31.564 51.4258 31.228 52.0978 31.228H57.8818C59.9698 31.228 61.5058 31.724 62.4898 32.716C63.4818 33.7 63.9778 35.236 63.9778 37.324V41.404C63.9778 43.492 63.4858 45.032 62.5018 46.024C61.5258 47.008 59.9858 47.5 57.8818 47.5H52.0978ZM53.1058 45.484H57.8818C58.9058 45.484 59.7138 45.36 60.3058 45.112C60.9058 44.856 61.3298 44.432 61.5778 43.84C61.8338 43.24 61.9618 42.428 61.9618 41.404V37.324C61.9618 36.308 61.8338 35.504 61.5778 34.912C61.3298 34.312 60.9058 33.884 60.3058 33.628C59.7138 33.372 58.9058 33.244 57.8818 33.244H53.1058V45.484ZM69.8266 42.244V42.82C69.8266 43.852 70.0146 44.556 70.3906 44.932C70.7666 45.3 71.4746 45.484 72.5146 45.484H74.4826C75.2986 45.484 75.9026 45.408 76.2946 45.256C76.6866 45.104 76.9466 44.836 77.0746 44.452C77.1626 44.148 77.2826 43.916 77.4346 43.756C77.5946 43.596 77.8346 43.516 78.1546 43.516C78.4906 43.516 78.7466 43.604 78.9226 43.78C79.0986 43.956 79.1546 44.212 79.0906 44.548C78.9146 45.54 78.4426 46.28 77.6746 46.768C76.9066 47.256 75.8426 47.5 74.4826 47.5H72.5146C70.9226 47.5 69.7386 47.116 68.9626 46.348C68.1946 45.58 67.8106 44.404 67.8106 42.82V40.036C67.8106 38.412 68.1946 37.22 68.9626 36.46C69.7386 35.692 70.9226 35.316 72.5146 35.332H74.4826C76.0826 35.332 77.2666 35.716 78.0346 36.484C78.8026 37.244 79.1866 38.428 79.1866 40.036V41.236C79.1866 41.908 78.8506 42.244 78.1786 42.244H69.8266ZM72.5146 37.348C71.4746 37.332 70.7666 37.512 70.3906 37.888C70.0146 38.264 69.8266 38.98 69.8266 40.036V40.228H77.1706V40.036C77.1706 38.988 76.9826 38.28 76.6066 37.912C76.2386 37.536 75.5306 37.348 74.4826 37.348H72.5146ZM87.8808 46.756C87.7768 47.004 87.6288 47.192 87.4368 47.32C87.2528 47.44 87.0168 47.5 86.7288 47.5C86.2248 47.5 85.8648 47.236 85.6488 46.708L81.5688 36.772C81.2888 36.132 81.4648 35.692 82.0968 35.452C82.6968 35.172 83.1368 35.348 83.4168 35.98L87.2328 45.292H86.2968L90.4728 35.932C90.6088 35.668 90.7928 35.488 91.0248 35.392C91.2648 35.296 91.5288 35.316 91.8168 35.452C92.4088 35.732 92.5688 36.18 92.2968 36.796L87.8808 46.756ZM100.562 47.5C98.7296 47.5 97.3736 47.064 96.4936 46.192C95.6216 45.312 95.1856 43.956 95.1856 42.124V36.58C95.1856 34.732 95.6256 33.376 96.5056 32.512C97.3856 31.64 98.7376 31.212 100.562 31.228H103.442C105.282 31.228 106.638 31.664 107.51 32.536C108.382 33.408 108.818 34.764 108.818 36.604V42.124C108.818 43.956 108.382 45.312 107.51 46.192C106.638 47.064 105.282 47.5 103.442 47.5H100.562ZM100.562 45.484H103.442C104.298 45.484 104.97 45.384 105.458 45.184C105.946 44.976 106.29 44.628 106.49 44.14C106.698 43.652 106.802 42.98 106.802 42.124V36.604C106.802 35.756 106.698 35.088 106.49 34.6C106.29 34.112 105.946 33.764 105.458 33.556C104.97 33.348 104.298 33.244 103.442 33.244H100.562C99.7136 33.236 99.0456 33.332 98.5576 33.532C98.0696 33.732 97.7216 34.076 97.5136 34.564C97.3056 35.052 97.2016 35.724 97.2016 36.58V42.124C97.2016 42.98 97.3016 43.652 97.5016 44.14C97.7096 44.628 98.0576 44.976 98.5456 45.184C99.0336 45.384 99.7056 45.484 100.562 45.484ZM114.231 52.3C113.559 52.3 113.223 51.964 113.223 51.292V36.34C113.223 35.668 113.559 35.332 114.231 35.332C114.903 35.332 115.239 35.668 115.239 36.34V36.64C115.671 36.208 116.203 35.884 116.835 35.668C117.475 35.444 118.191 35.332 118.983 35.332H119.895C121.495 35.332 122.679 35.716 123.447 36.484C124.215 37.252 124.599 38.436 124.599 40.036V42.796C124.599 44.388 124.215 45.572 123.447 46.348C122.679 47.116 121.495 47.5 119.895 47.5H115.239V51.292C115.239 51.964 114.903 52.3 114.231 52.3ZM115.239 45.484H119.895C120.943 45.484 121.651 45.296 122.019 44.92C122.395 44.544 122.583 43.836 122.583 42.796V40.036C122.583 38.988 122.395 38.28 122.019 37.912C121.651 37.536 120.943 37.348 119.895 37.348H118.983C117.983 37.348 117.119 37.468 116.391 37.708C115.663 37.948 115.279 38.328 115.239 38.848V45.484ZM131.875 47.5C130.859 47.5 130.055 47.292 129.463 46.876C128.871 46.452 128.491 45.82 128.323 44.98C128.267 44.644 128.331 44.38 128.515 44.188C128.707 43.996 128.971 43.9 129.307 43.9C129.635 43.9 129.871 43.984 130.015 44.152C130.167 44.312 130.291 44.556 130.387 44.884C130.483 45.124 130.643 45.284 130.867 45.364C131.099 45.444 131.435 45.484 131.875 45.484H135.811C136.435 45.484 136.855 45.384 137.071 45.184C137.287 44.976 137.395 44.548 137.395 43.9C137.395 43.26 137.287 42.836 137.071 42.628C136.855 42.42 136.435 42.316 135.811 42.316H131.947C130.795 42.316 129.927 42.024 129.343 41.44C128.759 40.856 128.467 39.988 128.467 38.836C128.467 37.66 128.751 36.784 129.319 36.208C129.895 35.624 130.771 35.332 131.947 35.332H135.691C137.571 35.332 138.683 36.124 139.027 37.708C139.091 38.044 139.027 38.304 138.835 38.488C138.643 38.672 138.379 38.764 138.043 38.764C137.731 38.764 137.499 38.684 137.347 38.524C137.195 38.356 137.075 38.124 136.987 37.828C136.891 37.636 136.743 37.508 136.543 37.444C136.351 37.38 136.067 37.348 135.691 37.348H131.947C131.339 37.348 130.943 37.44 130.759 37.624C130.575 37.808 130.483 38.212 130.483 38.836C130.483 39.412 130.579 39.8 130.771 40C130.971 40.2 131.363 40.3 131.947 40.3H135.811C137.011 40.3 137.911 40.6 138.511 41.2C139.111 41.8 139.411 42.7 139.411 43.9C139.411 45.108 139.111 46.012 138.511 46.612C137.911 47.204 137.011 47.5 135.811 47.5H131.875ZM35.228 75.404C34.588 75.156 34.396 74.716 34.652 74.084L40.364 60.02C40.604 59.492 40.98 59.228 41.492 59.228H41.54C42.06 59.252 42.412 59.516 42.596 60.02L48.404 74.084C48.66 74.716 48.476 75.156 47.852 75.404C47.22 75.652 46.78 75.468 46.532 74.852L45.236 71.708H37.76L36.524 74.852C36.276 75.476 35.844 75.66 35.228 75.404ZM38.552 69.692H44.408L41.42 62.42L38.552 69.692ZM55.6396 75.5C54.0476 75.5 52.8636 75.116 52.0876 74.348C51.3196 73.572 50.9356 72.388 50.9356 70.796V68.012C50.9356 66.412 51.3156 65.228 52.0756 64.46C52.8436 63.692 54.0316 63.316 55.6396 63.332H57.6076C58.7996 63.332 59.7356 63.532 60.4156 63.932C61.1036 64.332 61.5436 64.948 61.7356 65.78C61.8076 66.116 61.7476 66.376 61.5556 66.56C61.3716 66.744 61.1036 66.836 60.7516 66.836C60.4396 66.836 60.2116 66.756 60.0676 66.596C59.9236 66.436 59.7916 66.212 59.6716 65.924C59.5516 65.708 59.3316 65.56 59.0116 65.48C58.6916 65.392 58.2236 65.348 57.6076 65.348H55.6396C54.6076 65.332 53.8996 65.512 53.5156 65.888C53.1396 66.256 52.9516 66.964 52.9516 68.012V70.796C52.9516 71.836 53.1396 72.544 53.5156 72.92C53.8996 73.296 54.6076 73.484 55.6396 73.484H57.6076C58.2236 73.484 58.6916 73.444 59.0116 73.364C59.3316 73.276 59.5516 73.124 59.6716 72.908C59.7916 72.604 59.9236 72.376 60.0676 72.224C60.2196 72.072 60.4556 71.996 60.7756 71.996C61.1116 71.996 61.3716 72.088 61.5556 72.272C61.7476 72.456 61.8076 72.716 61.7356 73.052C61.5436 73.876 61.1036 74.492 60.4156 74.9C59.7356 75.3 58.7996 75.5 57.6076 75.5H55.6396ZM69.2009 75.5C67.8569 75.5 66.8569 75.172 66.2009 74.516C65.5449 73.86 65.2169 72.86 65.2169 71.516C65.2169 70.172 65.5409 69.172 66.1889 68.516C66.8449 67.86 67.8489 67.532 69.2009 67.532H74.2769C74.2289 66.692 74.0089 66.12 73.6169 65.816C73.2249 65.504 72.5529 65.348 71.6009 65.348H70.2089C69.4089 65.348 68.8129 65.404 68.4209 65.516C68.0289 65.62 67.7529 65.812 67.5929 66.092C67.4489 66.428 67.3009 66.66 67.1489 66.788C66.9969 66.916 66.7689 66.98 66.4649 66.98C66.1289 66.98 65.8649 66.888 65.6729 66.704C65.4809 66.512 65.4249 66.26 65.5049 65.948C65.7449 65.044 66.2449 64.384 67.0049 63.968C67.7729 63.544 68.8409 63.332 70.2089 63.332H71.6009C73.2009 63.332 74.3849 63.716 75.1529 64.484C75.9209 65.252 76.3049 66.436 76.3049 68.036V74.492C76.3049 75.164 75.9689 75.5 75.2969 75.5C74.6249 75.5 74.2889 75.164 74.2889 74.492V73.952C73.4329 74.984 72.1849 75.5 70.5449 75.5H69.2009ZM69.2009 73.484H70.5449C71.1369 73.484 71.6929 73.432 72.2129 73.328C72.7329 73.216 73.1769 73.016 73.5449 72.728C73.9209 72.44 74.1689 72.028 74.2889 71.492V69.548H69.2009C68.4089 69.548 67.8809 69.68 67.6169 69.944C67.3609 70.208 67.2329 70.732 67.2329 71.516C67.2329 72.308 67.3609 72.836 67.6169 73.1C67.8809 73.356 68.4089 73.484 69.2009 73.484ZM85.1943 75.5C83.6023 75.5 82.4183 75.116 81.6423 74.348C80.8743 73.572 80.4903 72.388 80.4903 70.796V68.036C80.4903 66.436 80.8743 65.252 81.6423 64.484C82.4183 63.716 83.6023 63.332 85.1943 63.332H89.8503V59.612C89.8503 58.94 90.1863 58.604 90.8583 58.604C91.5303 58.604 91.8663 58.94 91.8663 59.612V74.492C91.8663 75.164 91.5303 75.5 90.8583 75.5C90.1863 75.5 89.8503 75.164 89.8503 74.492V74.324C89.4743 74.708 88.9823 75 88.3743 75.2C87.7663 75.4 87.0103 75.5 86.1063 75.5H85.1943ZM85.1943 73.484H86.1063C87.1623 73.484 88.0503 73.348 88.7703 73.076C89.4903 72.804 89.8503 72.388 89.8503 71.828V65.348H85.1943C84.1543 65.348 83.4463 65.54 83.0703 65.924C82.6943 66.3 82.5063 67.004 82.5063 68.036V70.796C82.5063 71.836 82.6943 72.544 83.0703 72.92C83.4543 73.296 84.1623 73.484 85.1943 73.484ZM98.0688 70.244V70.82C98.0688 71.852 98.2568 72.556 98.6328 72.932C99.0088 73.3 99.7168 73.484 100.757 73.484H102.725C103.541 73.484 104.145 73.408 104.537 73.256C104.929 73.104 105.189 72.836 105.317 72.452C105.405 72.148 105.525 71.916 105.677 71.756C105.837 71.596 106.077 71.516 106.397 71.516C106.733 71.516 106.989 71.604 107.165 71.78C107.341 71.956 107.397 72.212 107.333 72.548C107.157 73.54 106.685 74.28 105.917 74.768C105.149 75.256 104.085 75.5 102.725 75.5H100.757C99.1648 75.5 97.9808 75.116 97.2048 74.348C96.4368 73.58 96.0528 72.404 96.0528 70.82V68.036C96.0528 66.412 96.4368 65.22 97.2048 64.46C97.9808 63.692 99.1648 63.316 100.757 63.332H102.725C104.325 63.332 105.509 63.716 106.277 64.484C107.045 65.244 107.429 66.428 107.429 68.036V69.236C107.429 69.908 107.093 70.244 106.421 70.244H98.0688ZM100.757 65.348C99.7168 65.332 99.0088 65.512 98.6328 65.888C98.2568 66.264 98.0688 66.98 98.0688 68.036V68.228H105.413V68.036C105.413 66.988 105.225 66.28 104.849 65.912C104.481 65.536 103.773 65.348 102.725 65.348H100.757ZM125.16 63.332C126.672 63.332 127.756 63.688 128.412 64.4C129.076 65.112 129.408 66.292 129.408 67.94V74.492C129.408 75.164 129.072 75.5 128.4 75.5C127.728 75.5 127.392 75.164 127.392 74.492V67.94C127.392 67.028 127.216 66.368 126.864 65.96C126.52 65.552 125.952 65.348 125.16 65.348H124.176C123.264 65.348 122.612 65.552 122.22 65.96C121.828 66.368 121.632 67.028 121.632 67.94V74.492C121.632 75.164 121.296 75.5 120.624 75.5C119.952 75.5 119.616 75.164 119.616 74.492V67.94C119.616 67.028 119.44 66.368 119.088 65.96C118.744 65.552 118.176 65.348 117.384 65.348H116.4C115.488 65.348 114.836 65.552 114.444 65.96C114.052 66.368 113.856 67.028 113.856 67.94V74.492C113.856 75.164 113.52 75.5 112.848 75.5C112.176 75.5 111.84 75.164 111.84 74.492V64.34C111.84 63.668 112.176 63.332 112.848 63.332C113.52 63.332 113.856 63.668 113.856 64.34V64.892C114.28 64.34 114.744 63.944 115.248 63.704C115.76 63.456 116.368 63.332 117.072 63.332H117.384C118.376 63.332 119.156 63.472 119.724 63.752C120.292 64.024 120.724 64.468 121.02 65.084C121.444 64.452 121.892 64.004 122.364 63.74C122.844 63.468 123.448 63.332 124.176 63.332H125.16ZM134.824 61.364C134.064 61.364 133.684 60.98 133.684 60.212V59.504C133.684 58.752 134.064 58.376 134.824 58.376H135.52C136.248 58.376 136.612 58.752 136.612 59.504V60.212C136.612 60.98 136.248 61.364 135.52 61.364H134.824ZM135.16 75.5C134.488 75.5 134.152 75.164 134.152 74.492V64.34C134.152 63.668 134.488 63.332 135.16 63.332C135.832 63.332 136.168 63.668 136.168 64.34V74.492C136.168 75.164 135.832 75.5 135.16 75.5ZM144.904 75.5C143.56 75.5 142.56 75.172 141.904 74.516C141.248 73.86 140.92 72.86 140.92 71.516C140.92 70.172 141.244 69.172 141.892 68.516C142.548 67.86 143.552 67.532 144.904 67.532H149.98C149.932 66.692 149.712 66.12 149.32 65.816C148.928 65.504 148.256 65.348 147.304 65.348H145.912C145.112 65.348 144.516 65.404 144.124 65.516C143.732 65.62 143.456 65.812 143.296 66.092C143.152 66.428 143.004 66.66 142.852 66.788C142.7 66.916 142.472 66.98 142.168 66.98C141.832 66.98 141.568 66.888 141.376 66.704C141.184 66.512 141.128 66.26 141.208 65.948C141.448 65.044 141.948 64.384 142.708 63.968C143.476 63.544 144.544 63.332 145.912 63.332H147.304C148.904 63.332 150.088 63.716 150.856 64.484C151.624 65.252 152.008 66.436 152.008 68.036V74.492C152.008 75.164 151.672 75.5 151 75.5C150.328 75.5 149.992 75.164 149.992 74.492V73.952C149.136 74.984 147.888 75.5 146.248 75.5H144.904ZM144.904 73.484H146.248C146.84 73.484 147.396 73.432 147.916 73.328C148.436 73.216 148.88 73.016 149.248 72.728C149.624 72.44 149.872 72.028 149.992 71.492V69.548H144.904C144.112 69.548 143.584 69.68 143.32 69.944C143.064 70.208 142.936 70.732 142.936 71.516C142.936 72.308 143.064 72.836 143.32 73.1C143.584 73.356 144.112 73.484 144.904 73.484Z" fill="white"/>
<path d="M206.6 99C203.8 99 202.4 97.6 202.4 94.8V35.4C202.4 32.6 203.8 31.2 206.6 31.2H230.7C239.4 31.2 245.8 33.2667 249.9 37.4C254.033 41.5 256.1 47.9 256.1 56.6V73.6C256.1 82.3 254.05 88.7167 249.95 92.85C245.883 96.95 239.467 99 230.7 99H206.6ZM210.8 90.6H230.7C234.967 90.6 238.333 90.0833 240.8 89.05C243.3 87.9833 245.067 86.2167 246.1 83.75C247.167 81.25 247.7 77.8667 247.7 73.6V56.6C247.7 52.3667 247.167 49.0167 246.1 46.55C245.067 44.05 243.3 42.2667 240.8 41.2C238.333 40.1333 234.967 39.6 230.7 39.6H210.8V90.6ZM280.47 77.1V79.5C280.47 83.8 281.254 86.7333 282.82 88.3C284.387 89.8333 287.337 90.6 291.67 90.6H299.87C303.27 90.6 305.787 90.2833 307.42 89.65C309.054 89.0167 310.137 87.9 310.67 86.3C311.037 85.0333 311.537 84.0667 312.17 83.4C312.837 82.7333 313.837 82.4 315.17 82.4C316.57 82.4 317.637 82.7667 318.37 83.5C319.104 84.2333 319.337 85.3 319.07 86.7C318.337 90.8333 316.37 93.9167 313.17 95.95C309.97 97.9833 305.537 99 299.87 99H291.67C285.037 99 280.104 97.4 276.87 94.2C273.67 91 272.07 86.1 272.07 79.5V67.9C272.07 61.1333 273.67 56.1667 276.87 53C280.104 49.8 285.037 48.2333 291.67 48.3H299.87C306.537 48.3 311.47 49.9 314.67 53.1C317.87 56.2667 319.47 61.2 319.47 67.9V72.9C319.47 75.7 318.07 77.1 315.27 77.1H280.47ZM291.67 56.7C287.337 56.6333 284.387 57.3833 282.82 58.95C281.254 60.5167 280.47 63.5 280.47 67.9V68.7H311.07V67.9C311.07 63.5333 310.287 60.5833 308.72 59.05C307.187 57.4833 304.237 56.7 299.87 56.7H291.67ZM355.696 95.9C355.263 96.9333 354.646 97.7167 353.846 98.25C353.079 98.75 352.096 99 350.896 99C348.796 99 347.296 97.9 346.396 95.7L329.396 54.3C328.229 51.6333 328.963 49.8 331.596 48.8C334.096 47.6333 335.929 48.3667 337.096 51L352.996 89.8H349.096L366.496 50.8C367.063 49.7 367.829 48.95 368.796 48.55C369.796 48.15 370.896 48.2333 372.096 48.8C374.563 49.9667 375.229 51.8333 374.096 54.4L355.696 95.9ZM408.533 99C400.899 99 395.249 97.1833 391.583 93.55C387.949 89.8833 386.133 84.2333 386.133 76.6V53.5C386.133 45.8 387.966 40.15 391.633 36.55C395.299 32.9167 400.933 31.1333 408.533 31.2H420.533C428.199 31.2 433.849 33.0167 437.483 36.65C441.116 40.2833 442.933 45.9333 442.933 53.6V76.6C442.933 84.2333 441.116 89.8833 437.483 93.55C433.849 97.1833 428.199 99 420.533 99H408.533ZM408.533 90.6H420.533C424.099 90.6 426.899 90.1833 428.933 89.35C430.966 88.4833 432.399 87.0333 433.233 85C434.099 82.9667 434.533 80.1667 434.533 76.6V53.6C434.533 50.0667 434.099 47.2833 433.233 45.25C432.399 43.2167 430.966 41.7667 428.933 40.9C426.899 40.0333 424.099 39.6 420.533 39.6H408.533C404.999 39.5667 402.216 39.9667 400.183 40.8C398.149 41.6333 396.699 43.0667 395.833 45.1C394.966 47.1333 394.533 49.9333 394.533 53.5V76.6C394.533 80.1667 394.949 82.9667 395.783 85C396.649 87.0333 398.099 88.4833 400.133 89.35C402.166 90.1833 404.966 90.6 408.533 90.6ZM465.487 119C462.687 119 461.287 117.6 461.287 114.8V52.5C461.287 49.7 462.687 48.3 465.487 48.3C468.287 48.3 469.687 49.7 469.687 52.5V53.75C471.487 51.95 473.703 50.6 476.337 49.7C479.003 48.7667 481.987 48.3 485.287 48.3H489.087C495.753 48.3 500.687 49.9 503.887 53.1C507.087 56.3 508.687 61.2333 508.687 67.9V79.4C508.687 86.0333 507.087 90.9667 503.887 94.2C500.687 97.4 495.753 99 489.087 99H469.687V114.8C469.687 117.6 468.287 119 465.487 119ZM469.687 90.6H489.087C493.453 90.6 496.403 89.8167 497.937 88.25C499.503 86.6833 500.287 83.7333 500.287 79.4V67.9C500.287 63.5333 499.503 60.5833 497.937 59.05C496.403 57.4833 493.453 56.7 489.087 56.7H485.287C481.12 56.7 477.52 57.2 474.487 58.2C471.453 59.2 469.853 60.7833 469.687 62.95V90.6ZM539.007 99C534.774 99 531.424 98.1333 528.957 96.4C526.49 94.6333 524.907 92 524.207 88.5C523.974 87.1 524.24 86 525.007 85.2C525.807 84.4 526.907 84 528.307 84C529.674 84 530.657 84.35 531.257 85.05C531.89 85.7167 532.407 86.7333 532.807 88.1C533.207 89.1 533.874 89.7667 534.807 90.1C535.774 90.4333 537.174 90.6 539.007 90.6H555.407C558.007 90.6 559.757 90.1833 560.657 89.35C561.557 88.4833 562.007 86.7 562.007 84C562.007 81.3333 561.557 79.5667 560.657 78.7C559.757 77.8333 558.007 77.4 555.407 77.4H539.307C534.507 77.4 530.89 76.1833 528.457 73.75C526.024 71.3167 524.807 67.7 524.807 62.9C524.807 58 525.99 54.35 528.357 51.95C530.757 49.5167 534.407 48.3 539.307 48.3H554.907C562.74 48.3 567.374 51.6 568.807 58.2C569.074 59.6 568.807 60.6833 568.007 61.45C567.207 62.2167 566.107 62.6 564.707 62.6C563.407 62.6 562.44 62.2667 561.807 61.6C561.174 60.9 560.674 59.9333 560.307 58.7C559.907 57.9 559.29 57.3667 558.457 57.1C557.657 56.8333 556.474 56.7 554.907 56.7H539.307C536.774 56.7 535.124 57.0833 534.357 57.85C533.59 58.6167 533.207 60.3 533.207 62.9C533.207 65.3 533.607 66.9167 534.407 67.75C535.24 68.5833 536.874 69 539.307 69H555.407C560.407 69 564.157 70.25 566.657 72.75C569.157 75.25 570.407 79 570.407 84C570.407 89.0333 569.157 92.8 566.657 95.3C564.157 97.7667 560.407 99 555.407 99H539.007ZM585.04 98.6C582.373 97.5667 581.573 95.7333 582.64 93.1L606.44 34.5C607.44 32.3 609.007 31.2 611.14 31.2H611.34C613.507 31.3 614.973 32.4 615.74 34.5L639.94 93.1C641.007 95.7333 640.24 97.5667 637.64 98.6C635.007 99.6333 633.173 98.8667 632.14 96.3L626.74 83.2H595.59L590.44 96.3C589.407 98.9 587.607 99.6667 585.04 98.6ZM598.89 74.8H623.29L610.84 44.5L598.89 74.8ZM670.088 99C663.455 99 658.522 97.4 655.288 94.2C652.088 90.9667 650.488 86.0333 650.488 79.4V67.8C650.488 61.1333 652.072 56.2 655.238 53C658.438 49.8 663.388 48.2333 670.088 48.3H678.288C683.255 48.3 687.155 49.1333 689.988 50.8C692.855 52.4667 694.688 55.0333 695.488 58.5C695.788 59.9 695.538 60.9833 694.738 61.75C693.972 62.5167 692.855 62.9 691.388 62.9C690.088 62.9 689.138 62.5667 688.538 61.9C687.938 61.2333 687.388 60.3 686.888 59.1C686.388 58.2 685.472 57.5833 684.138 57.25C682.805 56.8833 680.855 56.7 678.288 56.7H670.088C665.788 56.6333 662.838 57.3833 661.238 58.95C659.672 60.4833 658.888 63.4333 658.888 67.8V79.4C658.888 83.7333 659.672 86.6833 661.238 88.25C662.838 89.8167 665.788 90.6 670.088 90.6H678.288C680.855 90.6 682.805 90.4333 684.138 90.1C685.472 89.7333 686.388 89.1 686.888 88.2C687.388 86.9333 687.938 85.9833 688.538 85.35C689.172 84.7167 690.155 84.4 691.488 84.4C692.888 84.4 693.972 84.7833 694.738 85.55C695.538 86.3167 695.788 87.4 695.488 88.8C694.688 92.2333 692.855 94.8 689.988 96.5C687.155 98.1667 683.255 99 678.288 99H670.088ZM726.594 99C720.994 99 716.827 97.6333 714.094 94.9C711.36 92.1667 709.994 88 709.994 82.4C709.994 76.8 711.344 72.6333 714.044 69.9C716.777 67.1667 720.96 65.8 726.594 65.8H747.744C747.544 62.3 746.627 59.9167 744.994 58.65C743.36 57.35 740.56 56.7 736.594 56.7H730.794C727.46 56.7 724.977 56.9333 723.344 57.4C721.71 57.8333 720.56 58.6333 719.894 59.8C719.294 61.2 718.677 62.1667 718.044 62.7C717.41 63.2333 716.46 63.5 715.194 63.5C713.794 63.5 712.694 63.1167 711.894 62.35C711.094 61.55 710.86 60.5 711.194 59.2C712.194 55.4333 714.277 52.6833 717.444 50.95C720.644 49.1833 725.094 48.3 730.794 48.3H736.594C743.26 48.3 748.194 49.9 751.394 53.1C754.594 56.3 756.194 61.2333 756.194 67.9V94.8C756.194 97.6 754.794 99 751.994 99C749.194 99 747.794 97.6 747.794 94.8V92.55C744.227 96.85 739.027 99 732.194 99H726.594ZM726.594 90.6H732.194C734.66 90.6 736.977 90.3833 739.144 89.95C741.31 89.4833 743.16 88.65 744.694 87.45C746.26 86.25 747.294 84.5333 747.794 82.3V74.2H726.594C723.294 74.2 721.094 74.75 719.994 75.85C718.927 76.95 718.394 79.1333 718.394 82.4C718.394 85.7 718.927 87.9 719.994 89C721.094 90.0667 723.294 90.6 726.594 90.6ZM793.233 99C786.599 99 781.666 97.4 778.433 94.2C775.233 90.9667 773.633 86.0333 773.633 79.4V67.9C773.633 61.2333 775.233 56.3 778.433 53.1C781.666 49.9 786.599 48.3 793.233 48.3H812.633V32.8C812.633 30 814.033 28.6 816.833 28.6C819.633 28.6 821.033 30 821.033 32.8V94.8C821.033 97.6 819.633 99 816.833 99C814.033 99 812.633 97.6 812.633 94.8V94.1C811.066 95.7 809.016 96.9167 806.483 97.75C803.949 98.5833 800.799 99 797.033 99H793.233ZM793.233 90.6H797.033C801.433 90.6 805.133 90.0333 808.133 88.9C811.133 87.7667 812.633 86.0333 812.633 83.7V56.7H793.233C788.899 56.7 785.949 57.5 784.383 59.1C782.816 60.6667 782.033 63.6 782.033 67.9V79.4C782.033 83.7333 782.816 86.6833 784.383 88.25C785.983 89.8167 788.933 90.6 793.233 90.6ZM846.877 77.1V79.5C846.877 83.8 847.66 86.7333 849.227 88.3C850.793 89.8333 853.743 90.6 858.077 90.6H866.277C869.677 90.6 872.193 90.2833 873.827 89.65C875.46 89.0167 876.543 87.9 877.077 86.3C877.443 85.0333 877.943 84.0667 878.577 83.4C879.243 82.7333 880.243 82.4 881.577 82.4C882.977 82.4 884.043 82.7667 884.777 83.5C885.51 84.2333 885.743 85.3 885.477 86.7C884.743 90.8333 882.777 93.9167 879.577 95.95C876.377 97.9833 871.943 99 866.277 99H858.077C851.443 99 846.51 97.4 843.277 94.2C840.077 91 838.477 86.1 838.477 79.5V67.9C838.477 61.1333 840.077 56.1667 843.277 53C846.51 49.8 851.443 48.2333 858.077 48.3H866.277C872.943 48.3 877.877 49.9 881.077 53.1C884.277 56.2667 885.877 61.2 885.877 67.9V72.9C885.877 75.7 884.477 77.1 881.677 77.1H846.877ZM858.077 56.7C853.743 56.6333 850.793 57.3833 849.227 58.95C847.66 60.5167 846.877 63.5 846.877 67.9V68.7H877.477V67.9C877.477 63.5333 876.693 60.5833 875.127 59.05C873.593 57.4833 870.643 56.7 866.277 56.7H858.077ZM959.755 48.3C966.055 48.3 970.572 49.7833 973.305 52.75C976.072 55.7167 977.455 60.6333 977.455 67.5V94.8C977.455 97.6 976.055 99 973.255 99C970.455 99 969.055 97.6 969.055 94.8V67.5C969.055 63.7 968.322 60.95 966.855 59.25C965.422 57.55 963.055 56.7 959.755 56.7H955.655C951.855 56.7 949.139 57.55 947.505 59.25C945.872 60.95 945.055 63.7 945.055 67.5V94.8C945.055 97.6 943.655 99 940.855 99C938.055 99 936.655 97.6 936.655 94.8V67.5C936.655 63.7 935.922 60.95 934.455 59.25C933.022 57.55 930.655 56.7 927.355 56.7H923.255C919.455 56.7 916.739 57.55 915.105 59.25C913.472 60.95 912.655 63.7 912.655 67.5V94.8C912.655 97.6 911.255 99 908.455 99C905.655 99 904.255 97.6 904.255 94.8V52.5C904.255 49.7 905.655 48.3 908.455 48.3C911.255 48.3 912.655 49.7 912.655 52.5V54.8C914.422 52.5 916.355 50.85 918.455 49.85C920.589 48.8167 923.122 48.3 926.055 48.3H927.355C931.489 48.3 934.739 48.8833 937.105 50.05C939.472 51.1833 941.272 53.0333 942.505 55.6C944.272 52.9667 946.139 51.1 948.105 50C950.105 48.8667 952.622 48.3 955.655 48.3H959.755ZM1000.02 40.1C996.858 40.1 995.274 38.5 995.274 35.3V32.35C995.274 29.2167 996.858 27.65 1000.02 27.65H1002.92C1005.96 27.65 1007.47 29.2167 1007.47 32.35V35.3C1007.47 38.5 1005.96 40.1 1002.92 40.1H1000.02ZM1001.42 99C998.624 99 997.224 97.6 997.224 94.8V52.5C997.224 49.7 998.624 48.3 1001.42 48.3C1004.22 48.3 1005.62 49.7 1005.62 52.5V94.8C1005.62 97.6 1004.22 99 1001.42 99ZM1042.02 99C1036.42 99 1032.26 97.6333 1029.52 94.9C1026.79 92.1667 1025.42 88 1025.42 82.4C1025.42 76.8 1026.77 72.6333 1029.47 69.9C1032.21 67.1667 1036.39 65.8 1042.02 65.8H1063.17C1062.97 62.3 1062.06 59.9167 1060.42 58.65C1058.79 57.35 1055.99 56.7 1052.02 56.7H1046.22C1042.89 56.7 1040.41 56.9333 1038.77 57.4C1037.14 57.8333 1035.99 58.6333 1035.32 59.8C1034.72 61.2 1034.11 62.1667 1033.47 62.7C1032.84 63.2333 1031.89 63.5 1030.62 63.5C1029.22 63.5 1028.12 63.1167 1027.32 62.35C1026.52 61.55 1026.29 60.5 1026.62 59.2C1027.62 55.4333 1029.71 52.6833 1032.87 50.95C1036.07 49.1833 1040.52 48.3 1046.22 48.3H1052.02C1058.69 48.3 1063.62 49.9 1066.82 53.1C1070.02 56.3 1071.62 61.2333 1071.62 67.9V94.8C1071.62 97.6 1070.22 99 1067.42 99C1064.62 99 1063.22 97.6 1063.22 94.8V92.55C1059.66 96.85 1054.46 99 1047.62 99H1042.02ZM1042.02 90.6H1047.62C1050.09 90.6 1052.41 90.3833 1054.57 89.95C1056.74 89.4833 1058.59 88.65 1060.12 87.45C1061.69 86.25 1062.72 84.5333 1063.22 82.3V74.2H1042.02C1038.72 74.2 1036.52 74.75 1035.42 75.85C1034.36 76.95 1033.82 79.1333 1033.82 82.4C1033.82 85.7 1034.36 87.9 1035.42 89C1036.52 90.0667 1038.72 90.6 1042.02 90.6Z" fill="white"/>
</g>
<path d="M1103 3C1103 1.89543 1103.89 1 1105 1C1106.11 1 1107 1.89543 1107 3V149C1107 150.105 1106.11 151 1105 151C1103.89 151 1103 150.105 1103 149V3Z" fill="#E3E3E3"/>
<path d="M1162 28C1162 21.3726 1167.37 16 1174 16H1639C1645.63 16 1651 21.3726 1651 28V124C1651 130.627 1645.63 136 1639 136H1174C1167.37 136 1162 130.627 1162 124V28Z" fill="white"/>
<path d="M1280.55 52.14L1266.9 101H1255.35L1246.18 66.21L1236.59 101L1225.11 101.07L1211.95 52.14H1222.45L1231.06 90.08L1241 52.14H1251.92L1261.3 89.87L1269.98 52.14H1280.55Z" fill="#1B2731"/>
<path d="M1304.17 101.63C1300.44 101.63 1297.08 100.813 1294.09 99.18C1291.1 97.5 1288.75 95.1433 1287.02 92.11C1285.34 89.0767 1284.5 85.5767 1284.5 81.61C1284.5 77.6433 1285.36 74.1433 1287.09 71.11C1288.86 68.0767 1291.27 65.7433 1294.3 64.11C1297.33 62.43 1300.72 61.59 1304.45 61.59C1308.18 61.59 1311.57 62.43 1314.6 64.11C1317.63 65.7433 1320.01 68.0767 1321.74 71.11C1323.51 74.1433 1324.4 77.6433 1324.4 81.61C1324.4 85.5767 1323.49 89.0767 1321.67 92.11C1319.9 95.1433 1317.47 97.5 1314.39 99.18C1311.36 100.813 1307.95 101.63 1304.17 101.63ZM1304.17 93.09C1305.94 93.09 1307.6 92.67 1309.14 91.83C1310.73 90.9433 1311.99 89.6367 1312.92 87.91C1313.85 86.1833 1314.32 84.0833 1314.32 81.61C1314.32 77.9233 1313.34 75.1 1311.38 73.14C1309.47 71.1333 1307.11 70.13 1304.31 70.13C1301.51 70.13 1299.15 71.1333 1297.24 73.14C1295.37 75.1 1294.44 77.9233 1294.44 81.61C1294.44 85.2967 1295.35 88.1433 1297.17 90.15C1299.04 92.11 1301.37 93.09 1304.17 93.09Z" fill="#1B2731"/>
<path d="M1341.39 68.24C1342.65 66.1867 1344.28 64.5767 1346.29 63.41C1348.34 62.2433 1350.68 61.66 1353.29 61.66V71.95H1350.7C1347.62 71.95 1345.29 72.6733 1343.7 74.12C1342.16 75.5667 1341.39 78.0867 1341.39 81.68V101H1331.59V62.22H1341.39V68.24Z" fill="#1B2731"/>
<path d="M1382.85 101L1369.69 84.48V101H1359.89V49.2H1369.69V78.6699L1382.71 62.22H1395.45L1378.37 81.68L1395.59 101H1382.85Z" fill="#1B2731"/>
<path d="M1415.61 101.63C1412.44 101.63 1409.59 101.07 1407.07 99.95C1404.55 98.7833 1402.54 97.22 1401.05 95.26C1399.6 93.3 1398.81 91.13 1398.67 88.75H1408.54C1408.73 90.2433 1409.45 91.48 1410.71 92.46C1412.02 93.44 1413.63 93.93 1415.54 93.93C1417.41 93.93 1418.85 93.5567 1419.88 92.81C1420.95 92.0633 1421.49 91.1067 1421.49 89.94C1421.49 88.68 1420.84 87.7467 1419.53 87.14C1418.27 86.4867 1416.24 85.7867 1413.44 85.04C1410.55 84.34 1408.17 83.6167 1406.3 82.87C1404.48 82.1233 1402.89 80.98 1401.54 79.44C1400.23 77.9 1399.58 75.8233 1399.58 73.21C1399.58 71.0633 1400.19 69.1033 1401.4 67.33C1402.66 65.5567 1404.43 64.1567 1406.72 63.13C1409.05 62.1033 1411.78 61.59 1414.91 61.59C1419.53 61.59 1423.22 62.7567 1425.97 65.09C1428.72 67.3767 1430.24 70.48 1430.52 74.4H1421.14C1421 72.86 1420.35 71.6467 1419.18 70.76C1418.06 69.8267 1416.54 69.36 1414.63 69.36C1412.86 69.36 1411.48 69.6867 1410.5 70.34C1409.57 70.9933 1409.1 71.9033 1409.1 73.07C1409.1 74.3767 1409.75 75.38 1411.06 76.08C1412.37 76.7333 1414.4 77.41 1417.15 78.11C1419.95 78.81 1422.26 79.5333 1424.08 80.28C1425.9 81.0267 1427.46 82.1933 1428.77 83.78C1430.12 85.32 1430.82 87.3733 1430.87 89.94C1430.87 92.18 1430.24 94.1867 1428.98 95.96C1427.77 97.7333 1425.99 99.1333 1423.66 100.16C1421.37 101.14 1418.69 101.63 1415.61 101.63Z" fill="#1B2731"/>
<path d="M1460.75 61.66C1463.69 61.66 1466.31 62.3132 1468.59 63.6199C1470.88 64.8799 1472.65 66.77 1473.91 69.29C1475.22 71.7633 1475.87 74.75 1475.87 78.25V101H1466.07V79.58C1466.07 76.5 1465.3 74.1433 1463.76 72.51C1462.22 70.83 1460.12 69.9899 1457.46 69.9899C1454.76 69.9899 1452.61 70.83 1451.02 72.51C1449.48 74.1433 1448.71 76.5 1448.71 79.58V101H1438.91V49.2H1448.71V67.05C1449.97 65.37 1451.65 64.0633 1453.75 63.13C1455.85 62.15 1458.19 61.66 1460.75 61.66Z" fill="#1B2731"/>
<path d="M1502.41 101.63C1498.68 101.63 1495.32 100.813 1492.33 99.18C1489.35 97.5 1486.99 95.1433 1485.26 92.11C1483.58 89.0767 1482.74 85.5767 1482.74 81.61C1482.74 77.6433 1483.61 74.1433 1485.33 71.11C1487.11 68.0767 1489.51 65.7433 1492.54 64.11C1495.58 62.43 1498.96 61.59 1502.69 61.59C1506.43 61.59 1509.81 62.43 1512.84 64.11C1515.88 65.7433 1518.26 68.0767 1519.98 71.11C1521.76 74.1433 1522.64 77.6433 1522.64 81.61C1522.64 85.5767 1521.73 89.0767 1519.91 92.11C1518.14 95.1433 1515.71 97.5 1512.63 99.18C1509.6 100.813 1506.19 101.63 1502.41 101.63ZM1502.41 93.09C1504.19 93.09 1505.84 92.67 1507.38 91.83C1508.97 90.9433 1510.23 89.6367 1511.16 87.91C1512.1 86.1833 1512.56 84.0833 1512.56 81.61C1512.56 77.9233 1511.58 75.1 1509.62 73.14C1507.71 71.1333 1505.35 70.13 1502.55 70.13C1499.75 70.13 1497.4 71.1333 1495.48 73.14C1493.62 75.1 1492.68 77.9233 1492.68 81.61C1492.68 85.2967 1493.59 88.1433 1495.41 90.15C1497.28 92.11 1499.61 93.09 1502.41 93.09Z" fill="#1B2731"/>
<path d="M1539.63 67.82C1540.89 66.0467 1542.62 64.5767 1544.81 63.41C1547.05 62.1967 1549.6 61.59 1552.44 61.59C1555.76 61.59 1558.74 62.4067 1561.4 64.04C1564.11 65.6733 1566.23 68.0067 1567.77 71.04C1569.36 74.0267 1570.15 77.5033 1570.15 81.47C1570.15 85.4367 1569.36 88.96 1567.77 92.04C1566.23 95.0733 1564.11 97.43 1561.4 99.11C1558.74 100.79 1555.76 101.63 1552.44 101.63C1549.6 101.63 1547.08 101.047 1544.88 99.88C1542.74 98.7133 1540.99 97.2433 1539.63 95.47V119.48H1529.83V62.22H1539.63V67.82ZM1560.14 81.47C1560.14 79.1367 1559.65 77.13 1558.67 75.45C1557.74 73.7233 1556.48 72.4167 1554.89 71.53C1553.35 70.6433 1551.67 70.2 1549.85 70.2C1548.08 70.2 1546.4 70.6667 1544.81 71.6C1543.27 72.4867 1542.01 73.7933 1541.03 75.52C1540.1 77.2467 1539.63 79.2767 1539.63 81.61C1539.63 83.9433 1540.1 85.9733 1541.03 87.7C1542.01 89.4267 1543.27 90.7567 1544.81 91.69C1546.4 92.5767 1548.08 93.02 1549.85 93.02C1551.67 93.02 1553.35 92.5533 1554.89 91.62C1556.48 90.6867 1557.74 89.3567 1558.67 87.63C1559.65 85.9033 1560.14 83.85 1560.14 81.47Z" fill="#1B2731"/>
<path d="M1592.11 101.63C1588.94 101.63 1586.09 101.07 1583.57 99.95C1581.05 98.7833 1579.05 97.22 1577.55 95.26C1576.11 93.3 1575.31 91.13 1575.17 88.75H1585.04C1585.23 90.2433 1585.95 91.48 1587.21 92.46C1588.52 93.44 1590.13 93.93 1592.04 93.93C1593.91 93.93 1595.36 93.5567 1596.38 92.81C1597.46 92.0633 1597.99 91.1067 1597.99 89.94C1597.99 88.68 1597.34 87.7467 1596.03 87.14C1594.77 86.4867 1592.74 85.7867 1589.94 85.04C1587.05 84.34 1584.67 83.6167 1582.8 82.87C1580.98 82.1233 1579.4 80.98 1578.04 79.44C1576.74 77.9 1576.08 75.8233 1576.08 73.21C1576.08 71.0633 1576.69 69.1033 1577.9 67.33C1579.16 65.5567 1580.94 64.1567 1583.22 63.13C1585.56 62.1033 1588.29 61.59 1591.41 61.59C1596.03 61.59 1599.72 62.7567 1602.47 65.09C1605.23 67.3767 1606.74 70.48 1607.02 74.4H1597.64C1597.5 72.86 1596.85 71.6467 1595.68 70.76C1594.56 69.8267 1593.05 69.36 1591.13 69.36C1589.36 69.36 1587.98 69.6867 1587 70.34C1586.07 70.9933 1585.6 71.9033 1585.6 73.07C1585.6 74.3767 1586.26 75.38 1587.56 76.08C1588.87 76.7333 1590.9 77.41 1593.65 78.11C1596.45 78.81 1598.76 79.5333 1600.58 80.28C1602.4 81.0267 1603.97 82.1933 1605.27 83.78C1606.63 85.32 1607.33 87.3733 1607.37 89.94C1607.37 92.18 1606.74 94.1867 1605.48 95.96C1604.27 97.7333 1602.5 99.1333 1600.16 100.16C1597.88 101.14 1595.19 101.63 1592.11 101.63Z" fill="#1B2731"/>
<path d="M1190 38C1190 41.3137 1187.31 44 1184 44C1180.69 44 1178 41.3137 1178 38C1178 34.6863 1180.69 32 1184 32C1187.31 32 1190 34.6863 1190 38Z" fill="#1B2731"/>
<path d="M1190 114C1190 117.314 1187.31 120 1184 120C1180.69 120 1178 117.314 1178 114C1178 110.686 1180.69 108 1184 108C1187.31 108 1190 110.686 1190 114Z" fill="#1B2731"/>
<path d="M1635 38C1635 41.3137 1632.31 44 1629 44C1625.69 44 1623 41.3137 1623 38C1623 34.6863 1625.69 32 1629 32C1632.31 32 1635 34.6863 1635 38Z" fill="#1B2731"/>
<path d="M1635 114C1635 117.314 1632.31 120 1629 120C1625.69 120 1623 117.314 1623 114C1623 110.686 1625.69 108 1629 108C1632.31 108 1635 110.686 1635 114Z" fill="#1B2731"/>
<defs>
<linearGradient id="paint0_linear_1_52" x1="27.2653" y1="3.01102" x2="60.2509" y2="301.445" gradientUnits="userSpaceOnUse">
<stop stop-color="#5CFF68"/>
<stop offset="1" stop-color="#05CAFF"/>
</linearGradient>
<linearGradient id="paint1_linear_1_52" x1="1726.87" y1="26.4853" x2="1731.99" y2="229.795" gradientUnits="userSpaceOnUse">
<stop stop-color="#5CFF68"/>
<stop offset="1" stop-color="#05CAFF"/>
</linearGradient>
<clipPath id="clip0_1_52">
<rect width="1376" height="150" fill="white" transform="translate(0.5 0.5)"/>
</clipPath>
</defs>
</svg>
